# Blender 5.0.1
# www.blender.org
mtllib Coin.mtl
o Circle
v -0.000000 -0.087557 -0.488168
v -0.095237 -0.087557 -0.478788
v -0.186814 -0.087557 -0.451009
v -0.271212 -0.087557 -0.405897
v -0.345187 -0.087557 -0.345187
v -0.405897 -0.087557 -0.271212
v -0.451009 -0.087557 -0.186814
v -0.478788 -0.087557 -0.095237
v -0.488168 -0.087557 -0.000000
v -0.478788 -0.087557 0.095237
v -0.451009 -0.087557 0.186814
v -0.405897 -0.087557 0.271212
v -0.345187 -0.087557 0.345187
v -0.271212 -0.087557 0.405897
v -0.186814 -0.087557 0.451008
v -0.095237 -0.087557 0.478788
v -0.000000 -0.087557 0.488168
v 0.095237 -0.087557 0.478788
v 0.186814 -0.087557 0.451008
v 0.271212 -0.087557 0.405897
v 0.345187 -0.087557 0.345187
v 0.405897 -0.087557 0.271212
v 0.451009 -0.087557 0.186814
v 0.478788 -0.087557 0.095237
v 0.488168 -0.087557 -0.000000
v 0.478788 -0.087557 -0.095237
v 0.451009 -0.087557 -0.186814
v 0.405897 -0.087557 -0.271212
v 0.345187 -0.087557 -0.345187
v 0.271212 -0.087557 -0.405897
v 0.186814 -0.087557 -0.451009
v 0.095237 -0.087557 -0.478788
v -0.000000 0.089055 -0.488168
v -0.095237 0.089055 -0.478788
v -0.186814 0.089055 -0.451009
v -0.271212 0.089055 -0.405897
v -0.345187 0.089055 -0.345187
v -0.405897 0.089055 -0.271212
v -0.451009 0.089055 -0.186814
v -0.478788 0.089055 -0.095237
v -0.488168 0.089055 -0.000000
v -0.478788 0.089055 0.095237
v -0.451009 0.089055 0.186814
v -0.405897 0.089055 0.271212
v -0.345187 0.089055 0.345187
v -0.271212 0.089055 0.405897
v -0.186814 0.089055 0.451008
v -0.095237 0.089055 0.478788
v -0.000000 0.089055 0.488168
v 0.095237 0.089055 0.478788
v 0.186814 0.089055 0.451008
v 0.271212 0.089055 0.405897
v 0.345187 0.089055 0.345187
v 0.405897 0.089055 0.271212
v 0.451009 0.089055 0.186814
v 0.478788 0.089055 0.095237
v 0.488168 0.089055 -0.000000
v 0.478788 0.089055 -0.095237
v 0.451009 0.089055 -0.186814
v 0.405897 0.089055 -0.271212
v 0.345187 0.089055 -0.345187
v 0.271212 0.089055 -0.405897
v 0.186814 0.089055 -0.451009
v 0.095237 0.089055 -0.478788
vn -0.6344 -0.0000 0.7730
vn 0.8819 -0.0000 -0.4714
vn -0.4714 -0.0000 0.8819
vn -0.0980 -0.0000 -0.9952
vn 0.7730 -0.0000 -0.6344
vn -0.2903 -0.0000 0.9569
vn -0.2903 -0.0000 -0.9569
vn 0.6344 -0.0000 -0.7730
vn -0.0980 -0.0000 0.9952
vn -0.4714 -0.0000 -0.8819
vn 0.4714 -0.0000 -0.8819
vn 0.0980 -0.0000 0.9952
vn -0.6344 -0.0000 -0.7730
vn 0.2903 -0.0000 -0.9569
vn 0.2903 -0.0000 0.9569
vn -0.7730 -0.0000 -0.6344
vn 0.0980 -0.0000 -0.9952
vn 0.4714 -0.0000 0.8819
vn -0.8819 -0.0000 -0.4714
vn 0.6344 -0.0000 0.7730
vn -0.9569 -0.0000 -0.2903
vn 0.7730 -0.0000 0.6344
vn -0.9952 -0.0000 -0.0980
vn 0.8819 -0.0000 0.4714
vn -0.9952 -0.0000 0.0980
vn 0.9569 -0.0000 0.2903
vn -0.9569 -0.0000 0.2903
vn 0.9952 -0.0000 0.0980
vn -0.8819 -0.0000 0.4714
vn 0.9952 -0.0000 -0.0980
vn -0.7730 -0.0000 0.6344
vn 0.9569 -0.0000 -0.2903
vn -0.0000 1.0000 -0.0000
vn -0.0000 -1.0000 -0.0000
vt 0.000000 0.000000
s 0
f 14/1/1 46/1/1 45/1/1 13/1/1
f 28/1/2 60/1/2 59/1/2 27/1/2
f 15/1/3 47/1/3 46/1/3 14/1/3
f 2/1/4 34/1/4 33/1/4 1/1/4
f 29/1/5 61/1/5 60/1/5 28/1/5
f 16/1/6 48/1/6 47/1/6 15/1/6
f 3/1/7 35/1/7 34/1/7 2/1/7
f 30/1/8 62/1/8 61/1/8 29/1/8
f 17/1/9 49/1/9 48/1/9 16/1/9
f 4/1/10 36/1/10 35/1/10 3/1/10
f 31/1/11 63/1/11 62/1/11 30/1/11
f 18/1/12 50/1/12 49/1/12 17/1/12
f 5/1/13 37/1/13 36/1/13 4/1/13
f 32/1/14 64/1/14 63/1/14 31/1/14
f 19/1/15 51/1/15 50/1/15 18/1/15
f 6/1/16 38/1/16 37/1/16 5/1/16
f 1/1/17 33/1/17 64/1/17 32/1/17
f 20/1/18 52/1/18 51/1/18 19/1/18
f 7/1/19 39/1/19 38/1/19 6/1/19
f 21/1/20 53/1/20 52/1/20 20/1/20
f 8/1/21 40/1/21 39/1/21 7/1/21
f 22/1/22 54/1/22 53/1/22 21/1/22
f 9/1/23 41/1/23 40/1/23 8/1/23
f 23/1/24 55/1/24 54/1/24 22/1/24
f 10/1/25 42/1/25 41/1/25 9/1/25
f 24/1/26 56/1/26 55/1/26 23/1/26
f 11/1/27 43/1/27 42/1/27 10/1/27
f 25/1/28 57/1/28 56/1/28 24/1/28
f 12/1/29 44/1/29 43/1/29 11/1/29
f 26/1/30 58/1/30 57/1/30 25/1/30
f 13/1/31 45/1/31 44/1/31 12/1/31
f 27/1/32 59/1/32 58/1/32 26/1/32
f 34/1/33 35/1/33 36/1/33 37/1/33 38/1/33 39/1/33 40/1/33 41/1/33 42/1/33 43/1/33 44/1/33 45/1/33 46/1/33 47/1/33 48/1/33 49/1/33 50/1/33 51/1/33 52/1/33 53/1/33 54/1/33 55/1/33 56/1/33 57/1/33 58/1/33 59/1/33 60/1/33 61/1/33 62/1/33 63/1/33 64/1/33 33/1/33
f 2/1/34 1/1/34 32/1/34 31/1/34 30/1/34 29/1/34 28/1/34 27/1/34 26/1/34 25/1/34 24/1/34 23/1/34 22/1/34 21/1/34 20/1/34 19/1/34 18/1/34 17/1/34 16/1/34 15/1/34 14/1/34 13/1/34 12/1/34 11/1/34 10/1/34 9/1/34 8/1/34 7/1/34 6/1/34 5/1/34 4/1/34 3/1/34
