# Blender 5.0.1
# www.blender.org
mtllib Trashcan.mtl
o Cube
v -0.568716 -0.568716 0.568716
v -0.746020 0.942885 0.746020
v -0.568716 -0.568716 -0.568716
v -0.746020 0.942885 -0.746020
v 0.568716 -0.568716 0.568716
v 0.746020 0.942885 0.746020
v 0.568716 -0.568716 -0.568716
v 0.746020 0.942885 -0.746020
v -0.882101 1.007944 0.882101
v -0.882101 1.007944 -0.882101
v 0.882101 1.007944 -0.882101
v 0.882101 1.007944 0.882101
v -0.594842 -0.026246 0.594842
v -0.594842 -0.026246 -0.594842
v 0.594842 -0.026246 -0.594842
v 0.594842 -0.026246 0.594842
vn -0.9808 -0.1950 -0.0000
vn -0.0000 -0.1950 -0.9808
vn 0.9808 -0.1950 -0.0000
vn -0.0000 -0.1950 0.9808
vn -0.0000 -1.0000 -0.0000
vn 0.9881 0.1541 -0.0000
vn 0.4313 0.9022 -0.0000
vn -0.0000 0.9022 0.4313
vn -0.4313 0.9022 -0.0000
vn -0.0000 0.9022 -0.4313
vn -0.0000 1.0000 -0.0000
vn -0.0000 0.1541 -0.9881
vn -0.0000 0.1541 0.9881
vn -0.9881 0.1541 -0.0000
vt 0.375000 0.000000
vt 0.625000 0.000000
vt 0.625000 0.250000
vt 0.375000 0.250000
vt 0.625000 0.500000
vt 0.375000 0.500000
vt 0.625000 0.750000
vt 0.375000 0.750000
vt 0.625000 1.000000
vt 0.375000 1.000000
vt 0.125000 0.500000
vt 0.125000 0.750000
vt 0.855717 0.519284
vt 0.855716 0.730716
vt 0.875000 0.500000
vt 0.875000 0.750000
vt 0.644284 0.519284
vt 0.644284 0.730716
s 0
f 1/1/1 9/2/1 10/3/1 3/4/1
f 3/4/2 10/3/2 11/5/2 7/6/2
f 7/6/3 11/5/3 12/7/3 5/8/3
f 5/8/4 12/7/4 9/9/4 1/10/4
f 3/11/5 7/6/5 5/8/5 1/12/5
f 4/13/6 2/14/6 13/14/6 14/13/6
f 2/14/7 4/13/7 10/15/7 9/16/7
f 4/13/8 8/17/8 11/5/8 10/15/8
f 8/17/9 6/18/9 12/7/9 11/5/9
f 6/18/10 2/14/10 9/16/10 12/7/10
f 15/17/11 14/13/11 13/14/11 16/18/11
f 2/14/12 6/18/12 16/18/12 13/14/12
f 8/17/13 4/13/13 14/13/13 15/17/13
f 6/18/14 8/17/14 15/17/14 16/18/14
